# xmcd
#
# Track frame offsets:
# 182
# 15740
# 27125
# 41027
# 60240
# 68962
# 86575
# 99687
# 119402
# 134700
#
# Disc length: 1941 seconds
#
#
# Revision: 0
# Processed by: cddbd v1.4PL0 Copyright (c) Steve Scherf et al.
# Submitted via: FreeRIP 2.35 
#
DISCID=8707930a
DTITLE=Peret - La Puntita
DYEAR=1900
DGENRE=
TTITLE0=Y no provocan
TTITLE1=La fiesta no es para feos
TTITLE2=Lotienes que adivinar
TTITLE3=Vestido rojo de seda
TTITLE4=Voy, voy
TTITLE5=Borriquito
TTITLE6=Don Toribio
TTITLE7=Mentira
TTITLE8=Un lunar en el pie
TTITLE9=Rumba pa ti
EXTD=
EXTT0=
EXTT1=
EXTT2=
EXTT3=
EXTT4=
EXTT5=
EXTT6=
EXTT7=
EXTT8=
EXTT9=
PLAYORDER=
